<?xml version="1.0" encoding="utf-8"?>
<svg viewBox="255.285 27.642 80.081 34.553" xmlns="http://www.w3.org/2000/svg">
  <g transform="matrix(1.834947, 0, 0, 1.834947, -483.31839, -413.948822)" style="">
    <g transform="matrix(0.99888, -0.047325, 0.047325, 0.99888, -9.2526, -11.913448)">
      <path style="fill: rgb(138, 76, 22); stroke: rgb(0, 0, 0);" d="M 422.467 275.535 C 416.252 274.542 409.518 275.362 402.267 277.995 C 400.8 278.528 400.454 279.434 401.231 280.715 C 404.648 286.348 414.144 289.283 422.985 288.484 C 427.303 288.093 424.886 283.432 422.467 275.535 Z"/>
      <path style="fill: rgb(138, 76, 22);" d="M 420.914 279.549 C 420.914 279.549 426.741 281.233 431.92 279.549 C 437.099 277.865 433.215 282.916 433.215 282.916 C 433.215 282.916 428.812 285.635 424.28 283.952 C 419.748 282.269 420.396 279.808 420.914 279.549 Z"/>
      <ellipse style="stroke: rgb(0, 0, 0); fill: none;" cx="420.55" cy="282.398" rx="5.866" ry="6.733"/>
      <ellipse style="fill: rgb(255, 174, 0); stroke: rgb(0, 0, 0);" cx="422.273" cy="282.267" rx="5.503" ry="6.733"/>
      <ellipse style="" cx="422.86" cy="282.269" rx="4.061" ry="4.969"/>
      <ellipse style="fill: rgb(255, 174, 0); stroke: rgb(0, 0, 0);" cx="433.992" cy="281.75" rx="5.503" ry="6.733"/>
      <ellipse style="" cx="434.579" cy="281.752" rx="4.061" ry="4.969"/>
    </g>
    <path stroke-width="0" d="M 427.557 245.487 C 427.754 245.037 429.156 246.097 429.616 247.072 C 429.756 247.369 428.485 248.244 428.605 248.652 C 428.734 249.089 428.56 250.143 427.982 250.344 C 425.1 251.347 425.834 255.172 424.917 254.637 C 423.798 253.984 422.865 252.764 423.087 252.391 C 423.307 252.02 422.253 251.153 423.941 250.332 C 424.438 250.09 426.765 248.72 426.016 248.811 C 424.999 248.935 423.509 248.699 423.443 248.296 C 423.365 247.821 427.195 246.312 427.557 245.487 Z" style="stroke-width: 2px; fill: rgb(255, 255, 255);"/>
    <path stroke-width="0" d="M 439.195 244.346 C 439.392 243.896 440.794 244.956 441.254 245.931 C 441.394 246.228 440.123 247.103 440.243 247.511 C 440.372 247.948 440.198 249.002 439.62 249.203 C 436.738 250.206 437.472 254.031 436.555 253.496 C 435.436 252.843 434.503 251.623 434.725 251.25 C 434.945 250.879 433.891 250.012 435.579 249.191 C 436.076 248.949 438.403 247.579 437.654 247.67 C 436.637 247.794 435.147 247.558 435.081 247.155 C 435.003 246.68 438.833 245.171 439.195 244.346 Z" style="stroke-width: 2px; fill: rgb(255, 255, 255);"/>
  </g>
</svg>