<?xml version="1.0" encoding="utf-8"?>
<svg viewBox="0 0 99.594 63.415" xmlns="http://www.w3.org/2000/svg">
  <g transform="matrix(2.383651, -0.106042, 0.099428, 2.235039, -988.206726, -465.380585)" style="">
    <path style="stroke: rgb(0, 0, 0); fill: rgb(243, 227, 51);" d="M 408.747 248.522 C 408.747 248.522 401.083 230.348 423.286 230.156 C 435.54 230.05 436.436 237.353 437.296 244.927 C 440.932 246.483 445.297 246.419 443.86 250.347 C 442.152 255.017 433.184 253.576 424.22 252.642 C 413.215 251.495 408.747 248.522 408.747 248.522 Z"/>
    <path style="fill: rgb(243, 192, 51);" d="M 409.033 248.02 C 409.033 248.02 401.92 230.232 423.751 230.712 C 424.054 230.719 418.951 230.146 416.196 233.195 C 416.299 233.292 421.737 233.906 421.797 234.018 C 421.971 234.341 416.23 235.875 414.881 240.598 C 413.505 249.726 432.45 252.819 423.486 251.885 C 412.481 250.738 409.033 248.02 409.033 248.02 Z"/>
    <path style="fill: rgb(243, 192, 51);" d="M 433.793 248.784 C 433.793 248.784 434.136 248.697 435.791 248.533 C 435.89 248.523 433.821 236.769 423.235 234.351 C 409.283 231.481 414.674 235.075 417.891 235.664 C 434.6 238.721 433.793 248.784 433.793 248.784 Z"/>
    <path style="stroke: rgb(0, 0, 0); fill: none;" d="M 407.98 247.756 C 407.98 247.756 416.572 250.454 429.917 249.541 C 443.262 248.628 437.183 244.752 436.953 244.844"/>
    <path d="M 435.273 248.52 C 435.127 237.013 424.777 233.127 416.398 233.472 C 410.619 233.71 408.235 236.689 407.657 239.488" style="stroke: rgb(0, 0, 0); fill: none;"/>
  </g>
</svg>