<?xml version="1.0" encoding="utf-8"?>
<svg viewBox="255.285 27.642 52.032 36.992" xmlns="http://www.w3.org/2000/svg">
  <g transform="matrix(1.834947, 0, 0, 1.834947, -506.928833, -513.633545)" style="">
    <path d="M 430.2 305.145 C 430.2 306.142 430.815 307.918 430.121 309.737 C 429.925 310.251 429.883 311.953 429.883 311.953 C 429.883 311.953 430.63 311.305 432.258 311.794 C 433.663 312.216 434.039 312.358 434.396 312.427 C 434.807 312.507 435.174 311.747 436.295 311.953 C 437.159 312.112 438.9 312.024 438.749 311.874 C 438.235 311.359 437.637 309.755 437.641 308.628 C 437.644 307.61 437.805 306.57 437.878 305.699" style="stroke: rgb(0, 0, 0); fill: rgb(245, 233, 179);"/>
    <path d="M 439.516 306.242 C 433.333 306.052 430.485 305.534 427.002 303.675 C 423.126 301.606 420.188 300.522 417.842 295.607" style="stroke: rgb(0, 0, 0); fill: none;" transform="matrix(0.99888, -0.047325, 0.047325, 0.99888, -13.760932, 20.624399)"/>
    <path style="stroke: rgb(0, 0, 0); fill: none;" d="M 434.316 305.62 C 433.788 305.673 435.94 307.23 433.999 309.499 C 433.201 310.431 433.826 311.491 434.633 312.586"/>
  </g>
</svg>