<?xml version="1.0" encoding="utf-8"?>
<svg viewBox="255.285 27.642 526.422 64.228" xmlns="http://www.w3.org/2000/svg">
  <g style="" transform="matrix(1.834947, 0, 0, 1.834947, -48.8419, -407.548431)">
    <path style="stroke: rgb(0, 0, 0); fill: rgb(246, 223, 213);" d="M 181.559 247.24 L 406.669 247.983 C 407.03 247.34 405.626 238.092 418.849 238.184 C 429.617 238.259 430.693 246.977 430.415 247.847 C 458.545 251.13 454.932 270.253 419.204 269.692 L 181.478 267.651 C 165.662 268.237 160.788 248.009 181.559 247.24 Z"/>
    <path style="fill: rgb(205, 189, 181); stroke-width: 3px;" d="M 182.723 247.773 C 170.054 253.408 180.681 262.679 199.538 263.849 C 254.442 267.256 340.788 263.933 412.657 263.75 C 457.396 263.636 437.223 250.016 436.008 249.436 C 451.267 251.27 458.987 268.678 421.469 268.974 L 182.213 267.773 C 161.442 266.89 165.377 246.335 182.723 247.773 Z"/>
    <path style="fill: rgb(149, 104, 87);" d="M 186.579 267.976 C 182.371 264.466 179.73 263.84 179.733 256.861 C 179.735 249.972 185.127 248.029 185.206 248.191 C 185.255 248.291 182.716 250.762 182.595 256.776 C 182.475 262.749 183.705 264.721 186.579 267.976 Z"/>
    <path style="fill: rgb(149, 104, 87);" d="M 198.709 268.197 C 194.501 264.687 192.208 263.974 192.211 256.995 C 192.213 250.106 197.605 247.467 197.684 247.629 C 197.733 247.729 195.194 250.896 195.073 256.91 C 194.953 262.883 195.835 264.942 198.709 268.197 Z"/>
    <path style="fill: rgb(149, 104, 87);" d="M 212.349 268.197 C 208.141 264.687 205.935 263.974 205.938 256.995 C 205.94 250.106 211.158 247.902 211.237 248.064 C 211.286 248.164 208.921 250.896 208.8 256.91 C 208.68 262.883 209.475 264.942 212.349 268.197 Z"/>
    <path style="fill: rgb(149, 104, 87);" d="M 225.312 268.806 C 221.104 265.296 218.463 263.974 218.466 256.995 C 218.468 250.106 223.686 247.989 223.765 248.151 C 223.814 248.251 221.449 250.896 221.328 256.91 C 221.208 262.883 222.438 265.551 225.312 268.806 Z"/>
    <path style="fill: rgb(149, 104, 87);" d="M 236.73 268.207 C 232.522 264.697 230.852 264.484 230.855 257.505 C 230.857 250.616 236.249 247.977 236.328 248.139 C 236.377 248.239 233.838 251.406 233.717 257.42 C 233.597 263.393 233.856 264.952 236.73 268.207 Z"/>
    <path style="fill: rgb(149, 104, 87);" d="M 248 268.437 C 243.792 264.927 242.33 264.229 242.333 257.25 C 242.335 250.361 247.727 247.722 247.806 247.884 C 247.855 247.984 245.316 251.151 245.195 257.165 C 245.075 263.138 245.126 265.182 248 268.437 Z"/>
    <path style="fill: rgb(149, 104, 87);" d="M 261.08 268.41 C 256.872 264.9 255.063 263.994 255.066 257.015 C 255.068 250.126 260.46 247.487 260.539 247.649 C 260.588 247.749 258.049 250.916 257.928 256.93 C 257.808 262.903 258.206 265.155 261.08 268.41 Z"/>
    <path style="fill: rgb(149, 104, 87);" d="M 273.648 268.623 C 269.44 265.113 267.562 264.484 267.565 257.505 C 267.567 250.616 272.959 247.977 273.038 248.139 C 273.087 248.239 270.548 251.406 270.427 257.42 C 270.307 263.393 270.774 265.368 273.648 268.623 Z"/>
    <path style="fill: rgb(149, 104, 87);" d="M 287.824 268.618 C 283.616 265.108 281.356 264.739 281.359 257.76 C 281.361 250.871 286.753 248.232 286.832 248.394 C 286.881 248.494 284.342 251.661 284.221 257.675 C 284.101 263.648 284.95 265.363 287.824 268.618 Z"/>
    <path style="fill: rgb(149, 104, 87);" d="M 301.471 268.713 C 297.263 265.203 295.385 264.739 295.388 257.76 C 295.39 250.871 300.782 248.232 300.861 248.394 C 300.91 248.494 298.371 251.661 298.25 257.675 C 298.13 263.648 298.597 265.458 301.471 268.713 Z"/>
    <path style="fill: rgb(149, 104, 87);" d="M 314.841 268.618 C 310.633 265.108 308.373 264.739 308.376 257.76 C 308.378 250.871 313.77 248.232 313.849 248.394 C 313.898 248.494 311.359 251.661 311.238 257.675 C 311.118 263.648 311.967 265.363 314.841 268.618 Z"/>
    <path style="fill: rgb(149, 104, 87);" d="M 327.468 268.904 C 323.26 265.394 321.382 264.739 321.385 257.76 C 321.387 250.871 326.779 248.232 326.858 248.394 C 326.907 248.494 324.368 251.661 324.247 257.675 C 324.127 263.648 324.594 265.649 327.468 268.904 Z"/>
    <path style="fill: rgb(149, 104, 87);" d="M 340.783 268.713 C 336.575 265.203 334.411 264.739 334.414 257.76 C 334.416 250.871 339.808 248.232 339.887 248.394 C 339.936 248.494 337.397 251.661 337.276 257.675 C 337.156 263.648 337.909 265.458 340.783 268.713 Z"/>
    <path style="fill: rgb(149, 104, 87);" d="M 353.536 268.924 C 349.328 265.414 347.164 264.759 347.167 257.78 C 347.169 250.891 352.561 248.252 352.64 248.414 C 352.689 248.514 350.15 251.681 350.029 257.695 C 349.909 263.668 350.662 265.669 353.536 268.924 Z"/>
    <path style="fill: rgb(149, 104, 87);" d="M 367.277 269.336 C 363.069 265.826 360.428 264.504 360.431 257.525 C 360.433 250.636 365.825 247.997 365.904 248.159 C 365.953 248.259 363.414 251.426 363.293 257.44 C 363.173 263.413 364.403 266.081 367.277 269.336 Z"/>
    <path style="fill: rgb(149, 104, 87);" d="M 383.601 269.826 C 379.393 266.316 376.752 264.994 376.755 258.015 C 376.757 251.126 382.149 248.487 382.228 248.649 C 382.277 248.749 379.738 251.916 379.617 257.93 C 379.497 263.903 380.727 266.571 383.601 269.826 Z"/>
    <path style="fill: rgb(149, 104, 87);" d="M 401.456 269.571 C 397.248 266.061 394.607 264.739 394.61 257.76 C 394.612 250.871 400.004 248.232 400.083 248.394 C 400.132 248.494 397.593 251.661 397.472 257.675 C 397.352 263.648 398.582 266.316 401.456 269.571 Z"/>
    <path style="fill: rgb(149, 104, 87);" d="M 417.114 269.128 C 412.906 265.618 410.932 265.249 410.935 258.27 C 410.937 251.381 416.329 248.742 416.408 248.904 C 416.457 249.004 413.918 252.171 413.797 258.185 C 413.677 264.158 414.24 265.873 417.114 269.128 Z"/>
  </g>
</svg>