<?xml version="1.0" encoding="utf-8"?>
<svg viewBox="-73.172 -6.381 573.172 506.381" xmlns="http://www.w3.org/2000/svg">
  <g style="" transform="matrix(1.834947, 0, 0, 1.834947, -347.232361, -252.184494)">
    <path style="stroke: rgb(0, 0, 0); fill: rgb(246, 223, 213);" d="M 181.559 247.24 L 406.669 247.983 C 407.03 247.34 405.626 238.092 418.849 238.184 C 429.617 238.259 430.693 246.977 430.415 247.847 C 458.545 251.13 454.932 270.253 419.204 269.692 L 181.478 267.651 C 165.662 268.237 160.788 248.009 181.559 247.24 Z"/>
    <path style="fill: rgb(205, 189, 181); stroke-width: 3px;" d="M 182.723 247.773 C 170.054 253.408 180.681 262.679 199.538 263.849 C 254.442 267.256 340.788 263.933 412.657 263.75 C 457.396 263.636 437.223 250.016 436.008 249.436 C 451.267 251.27 458.987 268.678 421.469 268.974 L 182.213 267.773 C 161.442 266.89 165.377 246.335 182.723 247.773 Z"/>
    <path style="fill: rgb(149, 104, 87);" d="M 186.579 267.976 C 182.371 264.466 179.73 263.84 179.733 256.861 C 179.735 249.972 185.127 248.029 185.206 248.191 C 185.255 248.291 182.716 250.762 182.595 256.776 C 182.475 262.749 183.705 264.721 186.579 267.976 Z"/>
    <path style="fill: rgb(149, 104, 87);" d="M 195.359 268.296 C 191.151 264.955 188.51 263.696 188.513 257.054 C 188.515 250.496 193.907 247.984 193.986 248.139 C 194.035 248.234 191.496 251.248 191.375 256.973 C 191.255 262.658 192.485 265.197 195.359 268.296 Z"/>
    <path style="fill: rgb(149, 104, 87);" d="M 204.704 268.197 C 200.496 264.687 198.203 263.974 198.206 256.995 C 198.208 250.106 203.6 247.467 203.679 247.629 C 203.728 247.729 201.189 250.896 201.068 256.91 C 200.948 262.883 201.83 264.942 204.704 268.197 Z"/>
    <path style="fill: rgb(149, 104, 87);" d="M 215.074 268.197 C 210.866 264.687 208.66 263.974 208.663 256.995 C 208.665 250.106 213.883 247.902 213.962 248.064 C 214.011 248.164 211.646 250.896 211.525 256.91 C 211.405 262.883 212.2 264.942 215.074 268.197 Z"/>
    <path style="fill: rgb(149, 104, 87);" d="M 226.947 268.806 C 222.739 265.296 220.098 263.974 220.101 256.995 C 220.103 250.106 225.321 247.989 225.4 248.151 C 225.449 248.251 223.084 250.896 222.963 256.91 C 222.843 262.883 224.073 265.551 226.947 268.806 Z"/>
    <path style="fill: rgb(149, 104, 87);" d="M 236.73 268.207 C 232.522 264.697 230.852 264.484 230.855 257.505 C 230.857 250.616 236.249 247.977 236.328 248.139 C 236.377 248.239 233.838 251.406 233.717 257.42 C 233.597 263.393 233.856 264.952 236.73 268.207 Z"/>
    <path style="fill: rgb(149, 104, 87);" d="M 248 268.437 C 243.792 264.927 242.33 264.229 242.333 257.25 C 242.335 250.361 247.727 247.722 247.806 247.884 C 247.855 247.984 245.316 251.151 245.195 257.165 C 245.075 263.138 245.126 265.182 248 268.437 Z"/>
    <path style="fill: rgb(149, 104, 87);" d="M 261.08 268.41 C 256.872 264.9 255.063 263.994 255.066 257.015 C 255.068 250.126 260.46 247.487 260.539 247.649 C 260.588 247.749 258.049 250.916 257.928 256.93 C 257.808 262.903 258.206 265.155 261.08 268.41 Z"/>
    <path style="fill: rgb(149, 104, 87);" d="M 273.648 268.623 C 269.44 265.113 267.562 264.484 267.565 257.505 C 267.567 250.616 272.959 247.977 273.038 248.139 C 273.087 248.239 270.548 251.406 270.427 257.42 C 270.307 263.393 270.774 265.368 273.648 268.623 Z"/>
    <path style="fill: rgb(149, 104, 87);" d="M 287.824 268.618 C 283.616 265.108 281.356 264.739 281.359 257.76 C 281.361 250.871 286.753 248.232 286.832 248.394 C 286.881 248.494 284.342 251.661 284.221 257.675 C 284.101 263.648 284.95 265.363 287.824 268.618 Z"/>
    <path style="fill: rgb(149, 104, 87);" d="M 301.471 268.713 C 297.263 265.203 295.385 264.739 295.388 257.76 C 295.39 250.871 300.782 248.232 300.861 248.394 C 300.91 248.494 298.371 251.661 298.25 257.675 C 298.13 263.648 298.597 265.458 301.471 268.713 Z"/>
    <path style="fill: rgb(149, 104, 87);" d="M 314.841 268.618 C 310.633 265.108 308.373 264.739 308.376 257.76 C 308.378 250.871 313.77 248.232 313.849 248.394 C 313.898 248.494 311.359 251.661 311.238 257.675 C 311.118 263.648 311.967 265.363 314.841 268.618 Z"/>
    <path style="fill: rgb(149, 104, 87);" d="M 327.468 268.904 C 323.26 265.394 321.382 264.739 321.385 257.76 C 321.387 250.871 326.779 248.232 326.858 248.394 C 326.907 248.494 324.368 251.661 324.247 257.675 C 324.127 263.648 324.594 265.649 327.468 268.904 Z"/>
    <path style="fill: rgb(149, 104, 87);" d="M 340.783 268.713 C 336.575 265.203 334.411 264.739 334.414 257.76 C 334.416 250.871 339.808 248.232 339.887 248.394 C 339.936 248.494 337.397 251.661 337.276 257.675 C 337.156 263.648 337.909 265.458 340.783 268.713 Z"/>
    <path style="fill: rgb(149, 104, 87);" d="M 353.536 268.924 C 349.328 265.414 347.164 264.759 347.167 257.78 C 347.169 250.891 352.561 248.252 352.64 248.414 C 352.689 248.514 350.15 251.681 350.029 257.695 C 349.909 263.668 350.662 265.669 353.536 268.924 Z"/>
    <path style="fill: rgb(149, 104, 87);" d="M 367.277 269.336 C 363.069 265.826 360.428 264.504 360.431 257.525 C 360.433 250.636 365.825 247.997 365.904 248.159 C 365.953 248.259 363.414 251.426 363.293 257.44 C 363.173 263.413 364.403 266.081 367.277 269.336 Z"/>
    <path style="fill: rgb(149, 104, 87);" d="M 383.601 269.826 C 379.393 266.316 376.752 264.994 376.755 258.015 C 376.757 251.126 382.149 248.487 382.228 248.649 C 382.277 248.749 379.738 251.916 379.617 257.93 C 379.497 263.903 380.727 266.571 383.601 269.826 Z"/>
    <path style="fill: rgb(149, 104, 87);" d="M 401.456 269.571 C 397.248 266.061 394.607 264.739 394.61 257.76 C 394.612 250.871 400.004 248.232 400.083 248.394 C 400.132 248.494 397.593 251.661 397.472 257.675 C 397.352 263.648 398.582 266.316 401.456 269.571 Z"/>
    <path style="fill: rgb(149, 104, 87);" d="M 417.114 269.128 C 412.906 265.618 410.932 265.249 410.935 258.27 C 410.937 251.381 416.329 248.742 416.408 248.904 C 416.457 249.004 413.918 252.171 413.797 258.185 C 413.677 264.158 414.24 265.873 417.114 269.128 Z"/>
  </g>
  <g transform="matrix(1.834947, 0, 0, 1.834947, -322.0737, -331.146179)" style="">
    <g transform="matrix(0.99888, -0.047325, 0.047325, 0.99888, -9.2526, -11.913448)">
      <path style="fill: rgb(138, 76, 22); stroke: rgb(0, 0, 0);" d="M 422.467 275.535 C 416.252 274.542 409.518 275.362 402.267 277.995 C 400.8 278.528 400.454 279.434 401.231 280.715 C 404.648 286.348 414.144 289.283 422.985 288.484 C 427.303 288.093 424.886 283.432 422.467 275.535 Z"/>
      <path style="fill: rgb(138, 76, 22);" d="M 420.914 279.549 C 420.914 279.549 426.741 281.233 431.92 279.549 C 437.099 277.865 433.215 282.916 433.215 282.916 C 433.215 282.916 428.812 285.635 424.28 283.952 C 419.748 282.269 420.396 279.808 420.914 279.549 Z"/>
      <ellipse style="stroke: rgb(0, 0, 0); fill: none;" cx="420.55" cy="282.398" rx="5.866" ry="6.733"/>
      <ellipse style="fill: rgb(255, 174, 0); stroke: rgb(0, 0, 0);" cx="422.273" cy="282.267" rx="5.503" ry="6.733"/>
      <ellipse style="" cx="422.86" cy="282.269" rx="4.061" ry="4.969"/>
      <ellipse style="fill: rgb(255, 174, 0); stroke: rgb(0, 0, 0);" cx="433.992" cy="281.75" rx="5.503" ry="6.733"/>
      <ellipse style="" cx="434.579" cy="281.752" rx="4.061" ry="4.969"/>
    </g>
    <path stroke-width="0" d="M 427.557 245.487 C 427.754 245.037 429.156 246.097 429.616 247.072 C 429.756 247.369 428.485 248.244 428.605 248.652 C 428.734 249.089 428.56 250.143 427.982 250.344 C 425.1 251.347 425.834 255.172 424.917 254.637 C 423.798 253.984 422.865 252.764 423.087 252.391 C 423.307 252.02 422.253 251.153 423.941 250.332 C 424.438 250.09 426.765 248.72 426.016 248.811 C 424.999 248.935 423.509 248.699 423.443 248.296 C 423.365 247.821 427.195 246.312 427.557 245.487 Z" style="stroke-width: 2px; fill: rgb(255, 255, 255);"/>
    <path stroke-width="0" d="M 439.195 244.346 C 439.392 243.896 440.794 244.956 441.254 245.931 C 441.394 246.228 440.123 247.103 440.243 247.511 C 440.372 247.948 440.198 249.002 439.62 249.203 C 436.738 250.206 437.472 254.031 436.555 253.496 C 435.436 252.843 434.503 251.623 434.725 251.25 C 434.945 250.879 433.891 250.012 435.579 249.191 C 436.076 248.949 438.403 247.579 437.654 247.67 C 436.637 247.794 435.147 247.558 435.081 247.155 C 435.003 246.68 438.833 245.171 439.195 244.346 Z" style="stroke-width: 2px; fill: rgb(255, 255, 255);"/>
  </g>
  <g transform="matrix(2.383651, -0.106042, 0.099428, 2.235039, -685.530334, -380.334412)" style="">
    <path style="stroke: rgb(0, 0, 0); fill: rgb(243, 227, 51);" d="M 408.747 248.522 C 408.747 248.522 401.083 230.348 423.286 230.156 C 435.54 230.05 436.436 237.353 437.296 244.927 C 440.932 246.483 445.297 246.419 443.86 250.347 C 442.152 255.017 433.184 253.576 424.22 252.642 C 413.215 251.495 408.747 248.522 408.747 248.522 Z"/>
    <path style="fill: rgb(243, 192, 51);" d="M 409.033 248.02 C 409.033 248.02 401.92 230.232 423.751 230.712 C 424.054 230.719 418.951 230.146 416.196 233.195 C 416.299 233.292 421.737 233.906 421.797 234.018 C 421.971 234.341 416.23 235.875 414.881 240.598 C 413.505 249.726 432.45 252.819 423.486 251.885 C 412.481 250.738 409.033 248.02 409.033 248.02 Z"/>
    <path style="fill: rgb(243, 192, 51);" d="M 433.793 248.784 C 433.793 248.784 434.136 248.697 435.791 248.533 C 435.89 248.523 433.821 236.769 423.235 234.351 C 409.283 231.481 414.674 235.075 417.891 235.664 C 434.6 238.721 433.793 248.784 433.793 248.784 Z"/>
    <path style="stroke: rgb(0, 0, 0); fill: none;" d="M 407.98 247.756 C 407.98 247.756 416.572 250.454 429.917 249.541 C 443.262 248.628 437.183 244.752 436.953 244.844"/>
    <path d="M 435.273 248.52 C 435.127 237.013 424.777 233.127 416.398 233.472 C 410.619 233.71 408.235 236.689 407.657 239.488" style="stroke: rgb(0, 0, 0); fill: none;"/>
  </g>
  <g transform="matrix(1.834947, 0, 0, 1.834947, -364.213531, -263.127899)" style="">
    <path d="M 430.2 305.145 C 430.2 306.142 430.815 307.918 430.121 309.737 C 429.925 310.251 429.883 311.953 429.883 311.953 C 429.883 311.953 430.63 311.305 432.258 311.794 C 433.663 312.216 434.039 312.358 434.396 312.427 C 434.807 312.507 435.174 311.747 436.295 311.953 C 437.159 312.112 438.9 312.024 438.749 311.874 C 438.235 311.359 437.637 309.755 437.641 308.628 C 437.644 307.61 437.805 306.57 437.878 305.699" style="stroke: rgb(0, 0, 0); fill: rgb(245, 233, 179);"/>
    <path d="M 439.516 306.242 C 433.333 306.052 430.485 305.534 427.002 303.675 C 423.126 301.606 420.188 300.522 417.842 295.607" style="stroke: rgb(0, 0, 0); fill: none;" transform="matrix(0.99888, -0.047325, 0.047325, 0.99888, -13.760932, 20.624399)"/>
    <path style="stroke: rgb(0, 0, 0); fill: none;" d="M 434.316 305.62 C 433.788 305.673 435.94 307.23 433.999 309.499 C 433.201 310.431 433.826 311.491 434.633 312.586"/>
  </g>
</svg>